PathFileType	4	(X/Y/Z)	/Users/itak/Documents/Research/Walk-IL/dataset/trc/00255_00009.trc
DataRate	CameraRate	NumFrames	NumMarkers	Units	OrigDataRate	OrigDataStartFrame	OrigNumFrames
100.000000	100.000000	4	53	mm	100.000000	68	546
Frame#	Time	RPSI			LPSI			L3			STRN			T10			C7			CLAV			RBAK			LBAK			LSHO			LUPA			LAEL			LAOL			LWTS			LWPS			LFRA			LIFD			LHPS			LHTS			RSHO			RUPA			RAEL			RAOL			RWTS			RWPS			RFRA			RIFD			RHTS			RHPS			RBHD			LFHD			RFHD			LBHD			LHIP			RHIP			RASI			LASI			LKNE			LTHI			LANK			LTIP			LTOE			LMT1			LMT5			LHEE			RKNE			RTHI			RANK			RTIP			RTOE			RMT1			RMT5			RHEE			
		X1	Y1	Z1	X2	Y2	Z2	X3	Y3	Z3	X4	Y4	Z4	X5	Y5	Z5	X6	Y6	Z6	X7	Y7	Z7	X8	Y8	Z8	X9	Y9	Z9	X10	Y10	Z10	X11	Y11	Z11	X12	Y12	Z12	X13	Y13	Z13	X14	Y14	Z14	X15	Y15	Z15	X16	Y16	Z16	X17	Y17	Z17	X18	Y18	Z18	X19	Y19	Z19	X20	Y20	Z20	X21	Y21	Z21	X22	Y22	Z22	X23	Y23	Z23	X24	Y24	Z24	X25	Y25	Z25	X26	Y26	Z26	X27	Y27	Z27	X28	Y28	Z28	X29	Y29	Z29	X30	Y30	Z30	X31	Y31	Z31	X32	Y32	Z32	X33	Y33	Z33	X34	Y34	Z34	X35	Y35	Z35	X36	Y36	Z36	X37	Y37	Z37	X38	Y38	Z38	X39	Y39	Z39	X40	Y40	Z40	X41	Y41	Z41	X42	Y42	Z42	X43	Y43	Z43	X44	Y44	Z44	X45	Y45	Z45	X46	Y46	Z46	X47	Y47	Z47	X48	Y48	Z48	X49	Y49	Z49	X50	Y50	Z50	X51	Y51	Z51	X52	Y52	Z52	X53	Y53	Z53	

69	0.68	-1539.629760742188	1053.621459960938	-345.8163452148438	-1526.398071289062	1057.220947265625	-465.48779296875	-1537.721435546875	1133.729125976562	-425.891845703125	-1297.512329101562	1323.271850585938	-405.1730651855469	-1548.392700195312	1259.118408203125	-424.8347778320312	-1489.577270507812	1521.308715820312	-430.6712341308594	-1322.535522460938	1441.332275390625	-410.5403442382812	-1569.784912109375	1384.3759765625	-360.316650390625	-1500.2783203125	1480.301879882812	-541.8887939453125	-1406.305786132812	1479.788940429688	-589.4675903320312	-1425.308959960938	1357.503540039062	-664.06982421875	-1399.719360351562	1146.265380859375	-680.5478515625	-1478.033325195312	1129.927368164062	-644.8076782226562	-1317.483520507812	915.513671875	-599.3182373046875	-1329.241821289062	896.2584228515625	-681.9776611328125	-1373.435668945312	1039.204345703125	-686.2149658203125	-1313.509765625	719.1449584960938	-599.2588500976562	-1312.480224609375	807.8720703125	-672.1553955078125	-1280.655151367188	813.8464965820312	-610.6519165039062	-1449.801635742188	1492.136840820312	-254.0491638183594	-1473.747680664062	1429.278564453125	-186.5436553955078	-1490.830810546875	1146.520263671875	-143.6504364013672	-1519.628295898438	1139.056030273438	-234.1650238037109	-1350.821166992188	931.8822631835938	-179.2881622314453	-1406.5732421875	917.8358154296875	-116.0158538818359	-1463.806274414062	1078.287231445312	-128.7407073974609	-1334.747802734375	737.5892944335938	-181.7091369628906	-1312.882446289062	811.8179321289062	-162.1564788818359	-1367.051879882812	810.6688842773438	-114.1144027709961	-1457.3310546875	1678.6748046875	-383.8153686523438	-1244.906372070312	1724.972778320312	-453.2477722167969	-1258.7783203125	1724.8623046875	-354.5186157226562	-1395.146728515625	1684.662109375	-509.7740478515625	-1410.959350585938	992.0953979492188	-593.2838134765625	-1453.611083984375	1014.293762207031	-228.4209899902344	-1352.3408203125	1056.447631835938	-255.3548736572266	-1314.719848632812	1034.625122070312	-535.1421508789062	-1393.8525390625	506.9485473632812	-534.8032836914062	-1387.59521484375	649.8736572265625	-570.404296875	-1484.032592773438	38.39311218261719	-518.8509521484375	-1445.335205078125	285.140869140625	-539.9747314453125	-1276.395263671875	46.61902236938477	-441.708984375	-1348.04638671875	42.94793701171875	-405.0984191894531	-1354.748046875	38.39022445678711	-523.5458374023438	-1550.68994140625	44.8242301940918	-473.3596801757812	-1422.222534179688	520.6349487304688	-263.0959777832031	-1398.652954101562	787.974365234375	-215.4778594970703	-1497.073486328125	41.81975936889648	-290.7259826660156	-1418.987060546875	404.6291198730469	-280.9692993164062	-1284.754760742188	46.79254150390625	-330.0416870117188	-1340.5283203125	41.21849822998047	-374.0619812011719	-1386.91748046875	42.48712158203125	-263.27490234375	-1558.462524414062	37.73241424560547	-348.206298828125	
70	0.6900000000000001	-1539.583740234375	1053.64306640625	-345.7477416992188	-1526.327514648438	1057.234619140625	-465.4161987304688	-1537.624389648438	1133.746704101562	-425.8214111328125	-1297.380737304688	1323.309814453125	-405.1105346679688	-1548.296020507812	1259.115356445312	-424.767822265625	-1489.533935546875	1521.318237304688	-430.64453125	-1322.543212890625	1441.29736328125	-410.4979248046875	-1569.702026367188	1384.385620117188	-360.2698669433594	-1500.183715820312	1480.291137695312	-541.8521118164062	-1406.244140625	1479.764770507812	-589.4345703125	-1425.21142578125	1357.4775390625	-664.0254516601562	-1399.611206054688	1146.222534179688	-680.406494140625	-1477.920166015625	1129.888427734375	-644.6868286132812	-1317.446899414062	915.5238037109375	-599.137451171875	-1329.14697265625	896.2067260742188	-681.7284545898438	-1373.357177734375	1039.156616210938	-686.0426025390625	-1313.388916015625	719.0999755859375	-598.9022827148438	-1312.3642578125	807.8001708984375	-671.8402709960938	-1280.693359375	813.8690795898438	-610.4195556640625	-1449.744018554688	1492.161499023438	-254.0160064697266	-1473.6962890625	1429.307006835938	-186.4977111816406	-1490.822387695312	1146.560424804688	-143.5967712402344	-1519.59423828125	1139.086669921875	-234.1180114746094	-1350.819213867188	931.85888671875	-179.1555786132812	-1406.632202148438	917.8552856445312	-115.8919830322266	-1463.82421875	1078.319213867188	-128.6741943359375	-1334.7802734375	737.56396484375	-181.4964752197266	-1313.071411132812	811.6806640625	-162.0628967285156	-1367.0966796875	810.6441040039062	-113.9441986083984	-1457.199584960938	1678.68359375	-383.7931518554688	-1244.738159179688	1724.940185546875	-453.2157287597656	-1258.602172851562	1724.8115234375	-354.5283203125	-1395.022583007812	1684.649291992188	-509.7513732910156	-1410.942138671875	992.1133422851562	-593.2476196289062	-1453.563842773438	1014.306945800781	-228.3378448486328	-1352.28125	1056.461547851562	-255.2785797119141	-1314.57275390625	1034.6357421875	-535.0458374023438	-1393.802124023438	506.94091796875	-534.7680053710938	-1387.540771484375	649.87939453125	-570.363525390625	-1484.03662109375	38.38193130493164	-518.868408203125	-1445.31494140625	285.1409606933594	-539.9837646484375	-1276.386352539062	46.60277938842773	-441.7005920410156	-1348.052978515625	42.94723129272461	-405.0936889648438	-1354.748657226562	38.39019012451172	-523.5435180664062	-1550.699340820312	44.83266448974609	-473.367431640625	-1422.167358398438	520.6317749023438	-263.0408020019531	-1398.606567382812	787.9979858398438	-215.3997192382812	-1497.074340820312	41.81575775146484	-290.7222595214844	-1418.938232421875	404.6142578125	-280.9446716308594	-1284.760009765625	46.79479217529297	-330.0350036621094	-1340.522583007812	41.22266387939453	-374.0615539550781	-1386.92041015625	42.48345947265625	-263.2725830078125	-1558.46142578125	37.73043441772461	-348.2021789550781	
71	0.7000000000000001	-1539.534912109375	1053.666625976562	-345.671875	-1526.25439453125	1057.249389648438	-465.339599609375	-1537.528198242188	1133.763305664062	-425.7477722167969	-1297.236572265625	1323.353637695312	-405.0409851074219	-1548.193237304688	1259.109252929688	-424.6918029785156	-1489.48388671875	1521.326416015625	-430.6074829101562	-1322.538818359375	1441.261596679688	-410.4508666992188	-1569.613403320312	1384.3916015625	-360.2129516601562	-1500.097412109375	1480.274047851562	-541.8082275390625	-1406.187133789062	1479.741088867188	-589.3945922851562	-1425.123657226562	1357.450927734375	-663.9766845703125	-1399.506958007812	1146.180541992188	-680.2689208984375	-1477.80810546875	1129.84814453125	-644.5647583007812	-1317.41015625	915.5333862304688	-598.9603881835938	-1329.0166015625	896.1555786132812	-681.4774169921875	-1373.257690429688	1039.114501953125	-685.8634643554688	-1313.345092773438	719.0731811523438	-598.5850830078125	-1312.241333007812	807.7337036132812	-671.535888671875	-1280.676391601562	813.896240234375	-610.2202758789062	-1449.6845703125	1492.184448242188	-253.9768218994141	-1473.63818359375	1429.332275390625	-186.4439239501953	-1490.799438476562	1146.59716796875	-143.5349731445312	-1519.554565429688	1139.114379882812	-234.0688171386719	-1350.798706054688	931.8450317382812	-179.0036163330078	-1406.692016601562	917.8699951171875	-115.7728576660156	-1463.842651367188	1078.34619140625	-128.6106567382812	-1334.805419921875	737.5440673828125	-181.3007202148438	-1313.238159179688	811.5406494140625	-161.9711303710938	-1367.140380859375	810.618896484375	-113.7701644897461	-1457.06298828125	1678.689331054688	-383.7718811035156	-1244.570434570312	1724.917358398438	-453.1855163574219	-1258.429077148438	1724.771118164062	-354.5338134765625	-1394.884887695312	1684.631469726562	-509.7192993164062	-1410.931518554688	992.1321411132812	-593.2095336914062	-1453.511840820312	1014.322814941406	-228.2513885498047	-1352.221069335938	1056.483520507812	-255.2071838378906	-1314.422119140625	1034.64111328125	-534.9479370117188	-1393.755493164062	506.9344177246094	-534.73193359375	-1387.480590820312	649.8840942382812	-570.3172607421875	-1484.040161132812	38.36822128295898	-518.8871459960938	-1445.29638671875	285.1419067382812	-539.9937133789062	-1276.383544921875	46.5904426574707	-441.6932067871094	-1348.06103515625	42.94643783569336	-405.090087890625	-1354.749755859375	38.38946914672852	-523.541259765625	-1550.709838867188	44.83986663818359	-473.3770751953125	-1422.099731445312	520.6268310546875	-262.9830322265625	-1398.54736328125	788.0221557617188	-215.3224639892578	-1497.075073242188	41.81245422363281	-290.7193298339844	-1418.880981445312	404.5976867675781	-280.9195556640625	-1284.765014648438	46.79668426513672	-330.0296020507812	-1340.517578125	41.22935104370117	-374.0596008300781	-1386.923706054688	42.47959136962891	-263.2697448730469	-1558.459228515625	37.73008728027344	-348.1984252929688	
72	0.71	-1539.484375	1053.692260742188	-345.5888061523438	-1526.180541992188	1057.265258789062	-465.2588806152344	-1537.432250976562	1133.779663085938	-425.6705932617188	-1297.080078125	1323.401611328125	-404.9647521972656	-1548.085815429688	1259.100830078125	-424.6076049804688	-1489.425415039062	1521.3330078125	-430.5596618652344	-1322.517333984375	1441.227294921875	-410.400146484375	-1569.517944335938	1384.39453125	-360.1444396972656	-1500.0185546875	1480.252075195312	-541.7564697265625	-1406.135009765625	1479.718139648438	-589.3472290039062	-1425.045288085938	1357.424194335938	-663.92236328125	-1399.405517578125	1146.1396484375	-680.1348876953125	-1477.69970703125	1129.808471679688	-644.4423828125	-1317.363403320312	915.541259765625	-598.7793579101562	-1328.857055664062	896.1063232421875	-681.2246704101562	-1373.138427734375	1039.077270507812	-685.6769409179688	-1313.361450195312	719.0631713867188	-598.3023681640625	-1312.121337890625	807.6759643554688	-671.2459716796875	-1280.595825195312	813.9190063476562	-610.0357055664062	-1449.620239257812	1492.204956054688	-253.9302215576172	-1473.56982421875	1429.353759765625	-186.3813323974609	-1490.757934570312	1146.629272460938	-143.4624633789062	-1519.506958007812	1139.139038085938	-234.0149383544922	-1350.760620117188	931.8394165039062	-178.8363342285156	-1406.748901367188	917.879638671875	-115.6593399047852	-1463.856567382812	1078.3681640625	-128.5473785400391	-1334.828857421875	737.5291137695312	-181.1246643066406	-1313.370239257812	811.4075317382812	-161.8785247802734	-1367.187866210938	810.5945434570312	-113.5974807739258	-1456.92041015625	1678.693115234375	-383.7520751953125	-1244.402221679688	1724.900634765625	-453.1603393554688	-1258.260009765625	1724.740966796875	-354.533935546875	-1394.730712890625	1684.607177734375	-509.6769714355469	-1410.927612304688	992.1514892578125	-593.168701171875	-1453.44970703125	1014.341674804688	-228.1585998535156	-1352.161499023438	1056.511352539062	-255.1404571533203	-1314.27197265625	1034.639892578125	-534.8499145507812	-1393.713623046875	506.9291381835938	-534.695068359375	-1387.415161132812	649.8883056640625	-570.2655029296875	-1484.042602539062	38.35274124145508	-518.9067993164062	-1445.280517578125	285.1432800292969	-540.0048217773438	-1276.386840820312	46.58183670043945	-441.6866760253906	-1348.070068359375	42.94636535644531	-405.0876770019531	-1354.7509765625	38.38861083984375	-523.5393676757812	-1550.720581054688	44.8454704284668	-473.3888549804688	-1422.019287109375	520.6201782226562	-262.9222717285156	-1398.47509765625	788.045654296875	-215.2460479736328	-1497.075073242188	41.81037521362305	-290.7171020507812	-1418.816284179688	404.5806884765625	-280.8934326171875	-1284.769409179688	46.79797744750977	-330.0257263183594	-1340.512451171875	41.23628997802734	-374.0576171875	-1386.92724609375	42.47597503662109	-263.2666931152344	-1558.454956054688	37.73103332519531	-348.1959838867188	
